<svg width="30" height="30" viewBox="0 0 30 30" fill="none" xmlns="http://www.w3.org/2000/svg">
<g clip-path="url(#clip0_80_696)">
<path d="M17.7157 0.165649C14.5741 0.165649 11.7048 1.35159 9.53027 3.29857C10.0126 4.06552 10.2866 4.95782 10.3124 5.87888L10.3125 5.88156L10.3126 5.88424C10.3235 6.29927 10.3483 6.7144 10.3838 7.12889C12.0332 4.86251 14.7045 3.3854 17.7157 3.3854C22.714 3.3854 26.7803 7.45172 26.7803 12.45C26.7803 17.3955 22.7987 21.426 17.873 21.5105C18.3228 21.8864 18.7872 22.2446 19.2656 22.581L19.2678 22.5826L19.27 22.5841C19.9215 23.0437 20.4521 23.6462 20.8244 24.3353C26.0976 22.955 29.9999 18.1499 29.9999 12.45C30 5.67636 24.4894 0.165649 17.7157 0.165649Z" fill="white"/>
<path d="M17.4142 25.215C16.0108 24.0948 15.1353 23.3488 13.8822 22.188C13.5136 21.8465 13.063 21.6338 12.6003 21.6338C12.2463 21.6338 11.8966 21.7466 11.6088 21.9828C11.3117 22.2329 11.0146 22.483 10.7174 22.7329C8.30273 19.8633 6.50965 16.5194 5.45562 12.9201C5.82825 12.8111 6.20099 12.7019 6.57362 12.5929C7.39487 12.3414 7.78124 11.4647 7.66071 10.5858C7.39852 8.67284 7.2561 7.72247 7.09382 5.96889C7.01065 5.07005 6.41242 4.28926 5.555 4.24257C5.42127 4.22958 5.28765 4.22314 5.15511 4.22314C1.96648 4.22314 -0.8098 7.91899 0.217193 12.4404C1.49511 18.0397 4.26163 23.1989 8.21837 27.3619C9.83919 29.0636 11.8248 29.8342 13.6181 29.8342C15.5099 29.8342 17.1878 28.9773 18.0005 27.4521C18.4361 26.7121 18.1197 25.7783 17.4142 25.215Z" fill="white"/>
<path d="M14.0214 12.6773C13.1723 13.4652 12.6166 14.0847 12.3232 14.5708C12.1161 14.9137 11.965 15.2763 11.8738 15.6484C11.831 15.8235 11.8704 16.0053 11.9819 16.1473C12.0933 16.2891 12.2605 16.3705 12.4408 16.3705H16.4932C16.9897 16.3705 17.3937 15.9665 17.3937 15.47C17.3937 14.9735 16.9897 14.5696 16.4932 14.5696H14.6632C14.6781 14.552 14.6935 14.5344 14.7092 14.5166C14.8287 14.3821 15.1215 14.1009 15.5792 13.6811C16.0593 13.2405 16.3834 12.9106 16.5701 12.6725C16.8514 12.3144 17.0606 11.9649 17.1919 11.6337C17.3257 11.2961 17.3937 10.9363 17.3937 10.564C17.3937 9.89598 17.1518 9.32898 16.6747 8.87843C16.2008 8.43153 15.5483 8.20508 14.7352 8.20508C13.9964 8.20508 13.3689 8.39848 12.8702 8.77991C12.5694 9.01023 12.3378 9.32931 12.1818 9.72856C12.0764 9.99826 12.1036 10.3068 12.2547 10.5538C12.4059 10.8008 12.6682 10.9656 12.9563 10.9943C12.9884 10.9976 13.0204 10.9992 13.052 10.9992C13.4575 10.9992 13.8192 10.7413 13.9521 10.3575C13.9937 10.2372 14.0488 10.1415 14.116 10.0731C14.2574 9.92893 14.4479 9.85874 14.6985 9.85874C14.9532 9.85874 15.1435 9.92507 15.28 10.0615C15.4162 10.1977 15.4824 10.3963 15.4824 10.6689C15.4824 10.9221 15.392 11.1861 15.2136 11.4539C15.118 11.5941 14.8322 11.922 14.0214 12.6773Z" fill="white"/>
<path d="M22.1343 8.20508H21.4574C21.2646 8.20508 21.0845 8.30017 20.9756 8.45944L17.8452 13.042C17.7539 13.1757 17.7056 13.3321 17.7056 13.4941V14.2366C17.7056 14.5583 17.9673 14.8201 18.289 14.8201H20.8589V15.4411C20.8589 15.9536 21.2758 16.3706 21.7883 16.3706C22.3008 16.3706 22.7177 15.9536 22.7177 15.4411V14.8201H22.8106C23.2868 14.8201 23.6742 14.4326 23.6742 13.9564C23.6742 13.4802 23.2868 13.0928 22.8106 13.0928H22.7177V8.7885C22.7177 8.46684 22.456 8.20508 22.1343 8.20508ZM20.859 13.0928H19.7055L20.859 11.3779V13.0928Z" fill="white"/>
</g>
<defs>
<clipPath id="clip0_80_696">
<rect width="30" height="30" fill="white"/>
</clipPath>
</defs>
</svg>
