<svg width="20" height="20" viewBox="0 0 20 20" fill="none" xmlns="http://www.w3.org/2000/svg">
<g clip-path="url(#clip0_73_257)">
<path d="M19.375 8.25L10.2275 17.3983C9.17263 18.4532 7.74188 19.0459 6.25003 19.0459C4.75818 19.0459 3.32743 18.4532 2.27253 17.3983C1.21763 16.3435 0.625 14.9127 0.625 13.4208C0.625 11.929 1.21763 10.4982 2.27253 9.44331L9.78588 1.93084C10.1318 1.57268 10.5455 1.287 11.0031 1.09046C11.4606 0.89393 11.9527 0.790479 12.4506 0.786152C12.9485 0.781826 13.4423 0.876705 13.9032 1.06526C14.364 1.25381 14.7827 1.53226 15.1349 1.88436C15.487 2.23645 15.7654 2.65515 15.954 3.11601C16.1425 3.57687 16.2374 4.07067 16.2331 4.5686C16.2287 5.06652 16.1253 5.5586 15.9287 6.0161C15.7322 6.47362 15.4466 6.88741 15.0884 7.23334L7.57587 14.75C7.22229 15.0916 6.74869 15.2806 6.25708 15.2765C5.76545 15.2723 5.29515 15.0751 4.94745 14.7276C4.59976 14.38 4.40249 13.9097 4.39814 13.4181C4.39379 12.9265 4.58271 12.4529 4.9242 12.0991L12.4375 4.58334" stroke="white" stroke-width="1.5" stroke-linecap="round" stroke-linejoin="round"/>
</g>
<defs>
<clipPath id="clip0_73_257">
<rect width="20" height="20" fill="white"/>
</clipPath>
</defs>
</svg>
