<svg width="34" height="34" viewBox="0 0 34 34" fill="none" xmlns="http://www.w3.org/2000/svg">
<rect width="34" height="34" rx="17" fill="#333333"/>
<path d="M14.3676 24.3883C14.1617 24.3883 13.9559 24.3125 13.7934 24.15L7.21756 17.5742C6.90339 17.26 6.90339 16.74 7.21756 16.4258L13.7934 9.85C14.1076 9.53584 14.6276 9.53584 14.9417 9.85C15.2559 10.1642 15.2559 10.6842 14.9417 10.9983L8.94006 17L14.9417 23.0017C15.2559 23.3158 15.2559 23.8358 14.9417 24.15C14.7901 24.3125 14.5734 24.3883 14.3676 24.3883Z" fill="white"/>
<path d="M26.2086 17.8125H7.97607C7.53191 17.8125 7.16357 17.4442 7.16357 17C7.16357 16.5558 7.53191 16.1875 7.97607 16.1875H26.2086C26.6527 16.1875 27.0211 16.5558 27.0211 17C27.0211 17.4442 26.6527 17.8125 26.2086 17.8125Z" fill="white"/>
</svg>
