<svg width="25" height="25" viewBox="0 0 25 25" fill="none" xmlns="http://www.w3.org/2000/svg">
<rect width="25" height="25" rx="5" fill="#9068F4"/>
<g clip-path="url(#clip0_62_422)">
<path d="M6.40625 15.0781V8.04688C6.40625 7.79824 6.50503 7.55978 6.68084 7.38396C6.85665 7.20815 7.09511 7.10938 7.34375 7.10938H17.6562C17.9049 7.10938 18.1434 7.20815 18.3192 7.38396C18.495 7.55978 18.5938 7.79824 18.5938 8.04688V15.0781" stroke="white" stroke-width="1.5" stroke-linecap="round" stroke-linejoin="round"/>
<path d="M14.115 15.0781C13.9523 15.3629 13.7173 15.5995 13.4336 15.7641C13.15 15.9288 12.8279 16.0154 12.5 16.0154C12.1721 16.0154 11.85 15.9288 11.5664 15.7641C11.2827 15.5995 11.0477 15.3629 10.885 15.0781H5.46875V16.0156C5.46875 16.5129 5.66629 16.9898 6.01792 17.3414C6.36956 17.6931 6.84647 17.8906 7.34375 17.8906H17.6562C18.1535 17.8906 18.6304 17.6931 18.9821 17.3414C19.3337 16.9898 19.5312 16.5129 19.5312 16.0156V15.0781H14.115Z" stroke="white" stroke-width="1.5" stroke-linecap="round" stroke-linejoin="round"/>
</g>
<defs>
<clipPath id="clip0_62_422">
<rect width="15" height="15" fill="white" transform="translate(5 5)"/>
</clipPath>
</defs>
</svg>
