<svg width="22" height="22" viewBox="0 0 22 22" fill="none" xmlns="http://www.w3.org/2000/svg">
<path d="M10.542 19.25H5.50033C5.0141 19.25 4.54778 19.0569 4.20396 18.7131C3.86015 18.3693 3.66699 17.9029 3.66699 17.4167V6.41671C3.66699 5.93048 3.86015 5.46416 4.20396 5.12034C4.54778 4.77653 5.0141 4.58337 5.50033 4.58337H16.5003C16.9866 4.58337 17.4529 4.77653 17.7967 5.12034C18.1405 5.46416 18.3337 5.93048 18.3337 6.41671V10.0834" stroke="white" stroke-width="2" stroke-linecap="round" stroke-linejoin="round"/>
<path d="M14.667 2.75V6.41667" stroke="white" stroke-width="2" stroke-linecap="round" stroke-linejoin="round"/>
<path d="M7.33301 2.75V6.41667" stroke="white" stroke-width="2" stroke-linecap="round" stroke-linejoin="round"/>
<path d="M3.66699 10.0834H18.3337" stroke="white" stroke-width="2" stroke-linecap="round" stroke-linejoin="round"/>
<path d="M16.4998 20.1667L19.5706 17.1564C19.7589 16.9736 19.9087 16.755 20.0112 16.5134C20.1136 16.2718 20.1666 16.0122 20.167 15.7498C20.1674 15.4874 20.1153 15.2275 20.0136 14.9856C19.912 14.7437 19.7629 14.5246 19.5752 14.3413C19.1922 13.9667 18.678 13.7565 18.1422 13.7554C17.6064 13.7544 17.0914 13.9626 16.7069 14.3358L16.5016 14.5374L16.2972 14.3358C15.9142 13.9614 15.4002 13.7514 14.8647 13.7504C14.3291 13.7493 13.8143 13.9574 13.4299 14.3303C13.2415 14.5129 13.0916 14.7315 12.9891 14.9731C12.8866 15.2146 12.8335 15.4742 12.833 15.7367C12.8325 15.9991 12.8846 16.2589 12.9861 16.5008C13.0877 16.7428 13.2367 16.9619 13.4244 17.1454L16.4998 20.1667Z" stroke="white" stroke-width="2" stroke-linecap="round" stroke-linejoin="round"/>
</svg>
