<svg width="20" height="20" viewBox="0 0 20 20" fill="none" xmlns="http://www.w3.org/2000/svg">
<path d="M14.3667 18.9583H5.6334C3.30006 18.9583 1.81673 17.5666 1.6834 15.2416L1.25006 8.36663C1.1834 7.32496 1.54173 6.32496 2.2584 5.56663C2.96673 4.80829 3.96673 4.37496 5.00006 4.37496C5.26673 4.37496 5.52506 4.21663 5.65006 3.96663L6.25006 2.77496C6.74173 1.79996 7.97506 1.04163 9.05006 1.04163H10.9584C12.0334 1.04163 13.2584 1.79996 13.7501 2.76663L14.3501 3.98329C14.4751 4.21663 14.7251 4.37496 15.0001 4.37496C16.0334 4.37496 17.0334 4.80829 17.7417 5.56663C18.4584 6.33329 18.8167 7.32496 18.7501 8.36663L18.3167 15.25C18.1667 17.6083 16.7251 18.9583 14.3667 18.9583ZM9.05006 2.29163C8.4334 2.29163 7.65006 2.77496 7.36673 3.33329L6.76673 4.53329C6.41673 5.20829 5.74173 5.62496 5.00006 5.62496C4.30006 5.62496 3.65006 5.90829 3.16673 6.41663C2.69173 6.92496 2.45006 7.59163 2.50006 8.28329L2.9334 15.1666C3.0334 16.85 3.94173 17.7083 5.6334 17.7083H14.3667C16.0501 17.7083 16.9584 16.85 17.0667 15.1666L17.5001 8.28329C17.5417 7.59163 17.3084 6.92496 16.8334 6.41663C16.3501 5.90829 15.7001 5.62496 15.0001 5.62496C14.2584 5.62496 13.5834 5.20829 13.2334 4.54996L12.6251 3.33329C12.3501 2.78329 11.5667 2.29996 10.9501 2.29996H9.05006V2.29163Z" fill="white"/>
<path d="M11.25 7.29163H8.75C8.40833 7.29163 8.125 7.00829 8.125 6.66663C8.125 6.32496 8.40833 6.04163 8.75 6.04163H11.25C11.5917 6.04163 11.875 6.32496 11.875 6.66663C11.875 7.00829 11.5917 7.29163 11.25 7.29163Z" fill="white"/>
<path d="M10.0003 15.625C8.15866 15.625 6.66699 14.1334 6.66699 12.2917C6.66699 10.45 8.15866 8.95837 10.0003 8.95837C11.842 8.95837 13.3337 10.45 13.3337 12.2917C13.3337 14.1334 11.842 15.625 10.0003 15.625ZM10.0003 10.2084C8.85033 10.2084 7.91699 11.1417 7.91699 12.2917C7.91699 13.4417 8.85033 14.375 10.0003 14.375C11.1503 14.375 12.0837 13.4417 12.0837 12.2917C12.0837 11.1417 11.1503 10.2084 10.0003 10.2084Z" fill="white"/>
</svg>
