<svg width="20" height="20" viewBox="0 0 20 20" fill="none" xmlns="http://www.w3.org/2000/svg">
<g clip-path="url(#clip0_75_404)">
<path d="M13.75 17.5H2.5L2.5 6.25L13.75 6.25L13.75 17.5ZM15 17.5L15 6.25C15 5.91848 14.8683 5.60054 14.6339 5.36612C14.3995 5.1317 14.0815 5 13.75 5L2.5 5C2.16848 5 1.85054 5.1317 1.61612 5.36612C1.3817 5.60054 1.25 5.91848 1.25 6.25L1.25 17.5C1.25 17.8315 1.3817 18.1495 1.61612 18.3839C1.85054 18.6183 2.16848 18.75 2.5 18.75H13.75C14.0815 18.75 14.3995 18.6183 14.6339 18.3839C14.8683 18.1495 15 17.8315 15 17.5Z" fill="white"/>
<path d="M8.75 2.5V1.25L17.5 1.25C17.8315 1.25 18.1495 1.3817 18.3839 1.61612C18.6183 1.85054 18.75 2.16848 18.75 2.5L18.75 11.25H17.5V2.5L8.75 2.5Z" fill="white"/>
</g>
<defs>
<clipPath id="clip0_75_404">
<rect width="20" height="20" fill="white" transform="matrix(0 1 -1 0 20 0)"/>
</clipPath>
</defs>
</svg>
