<svg width="34" height="34" viewBox="0 0 34 34" fill="none" xmlns="http://www.w3.org/2000/svg">
<rect width="34" height="34" rx="17" fill="#333333"/>
<path d="M19.0244 17H14.1244C13.8645 17 13.6153 17.1032 13.4315 17.287C13.2477 17.4707 13.1444 17.72 13.1444 17.98C13.1444 18.2399 13.2477 18.4891 13.4315 18.6729C13.6153 18.8566 13.8645 18.96 14.1244 18.96H19.0244C19.2844 18.96 19.5337 18.8566 19.7174 18.6729C19.9012 18.4891 20.0044 18.2399 20.0044 17.98C20.0044 17.72 19.9012 17.4707 19.7174 17.287C19.5337 17.1032 19.2844 17 19.0244 17ZM20.0044 24.84H12.1644C11.9045 24.84 11.6553 24.7366 11.4715 24.5529C11.2877 24.3691 11.1844 24.1199 11.1844 23.86V10.14C11.1844 9.88003 11.2877 9.63078 11.4715 9.44695C11.6553 9.2632 11.9045 9.15995 12.1644 9.15995H17.0644V12.1C17.0644 12.8797 17.3743 13.6275 17.9256 14.1789C18.4769 14.7302 19.2247 15.04 20.0044 15.04H22.9444V16.02C22.9444 16.2799 23.0478 16.5291 23.2315 16.7129C23.4153 16.8966 23.6645 17 23.9244 17C24.1844 17 24.4337 16.8966 24.6174 16.7129C24.8012 16.5291 24.9044 16.2799 24.9044 16.02V14.06C24.9087 14.0406 24.9087 14.0205 24.9044 14.0011C24.8961 13.9098 24.873 13.8205 24.8359 13.7365V13.6484C24.7887 13.5476 24.7259 13.455 24.6497 13.374L18.7697 7.49395C18.6864 7.41578 18.5903 7.35278 18.4854 7.30778H18.407C18.3104 7.25187 18.204 7.21528 18.0934 7.19995H12.2134C11.4337 7.19995 10.6859 7.5097 10.1345 8.06103C9.58319 8.61245 9.27344 9.3602 9.27344 10.14V23.86C9.27344 24.6396 9.58319 25.3875 10.1345 25.9388C10.6859 26.4902 11.4337 26.8 12.2134 26.8H20.0534C20.3134 26.8 20.5627 26.6966 20.7464 26.5129C20.9302 26.3291 21.0334 26.0799 21.0334 25.82C21.0334 25.56 20.9302 25.3107 20.7464 25.127C20.5627 24.9432 20.3134 24.84 20.0534 24.84H20.0044ZM19.0244 10.5418L21.5529 13.08H20.0044C19.7445 13.08 19.4953 12.9767 19.3115 12.793C19.1278 12.6091 19.0244 12.3599 19.0244 12.1V10.5418ZM24.483 25.1241C24.4365 25.082 24.3874 25.0427 24.336 25.0065C24.2284 24.9365 24.1088 24.8867 23.9833 24.8595C23.8258 24.828 23.663 24.8356 23.5092 24.8818C23.3554 24.928 23.2154 25.0111 23.1013 25.1241C23.0094 25.2153 22.9365 25.3237 22.8867 25.443C22.8369 25.5625 22.8114 25.6906 22.8114 25.82C22.8114 25.9493 22.8369 26.0774 22.8867 26.1969C22.9365 26.3162 23.0094 26.4246 23.1013 26.5157C23.2839 26.6968 23.5302 26.7989 23.7873 26.8C23.9485 26.8007 24.1076 26.7617 24.2502 26.6863C24.3929 26.6109 24.5147 26.5015 24.6049 26.3676C24.695 26.2338 24.7508 26.0799 24.7672 25.9193C24.7835 25.7589 24.76 25.5968 24.6987 25.4475C24.6454 25.3285 24.5725 25.2191 24.483 25.1241ZM19.0244 20.92H14.1244C13.8645 20.92 13.6153 21.0232 13.4315 21.207C13.2477 21.3907 13.1444 21.64 13.1444 21.9C13.1444 22.1599 13.2477 22.4091 13.4315 22.5929C13.6153 22.7766 13.8645 22.88 14.1244 22.88H19.0244C19.2844 22.88 19.5337 22.7766 19.7174 22.5929C19.9012 22.4091 20.0044 22.1599 20.0044 21.9C20.0044 21.64 19.9012 21.3907 19.7174 21.207C19.5337 21.0232 19.2844 20.92 19.0244 20.92ZM23.7873 17.98C23.2709 17.9796 22.7634 18.1153 22.3162 18.3733C21.8689 18.6315 21.4975 19.0028 21.2393 19.45C21.1749 19.562 21.1332 19.6855 21.1167 19.8135C21.1 19.9416 21.1088 20.0717 21.1425 20.1963C21.1761 20.321 21.234 20.4378 21.3129 20.5401C21.3916 20.6425 21.4899 20.7282 21.6019 20.7925C21.7138 20.857 21.8374 20.8986 21.9654 20.9151C22.0935 20.9318 22.2236 20.923 22.3482 20.8893C22.4729 20.8557 22.5897 20.7978 22.692 20.719C22.7944 20.64 22.8801 20.542 22.9444 20.43C23.0306 20.2808 23.1546 20.157 23.3039 20.0709C23.4531 19.9849 23.6224 19.9398 23.7946 19.94C23.9669 19.9403 24.136 19.986 24.2851 20.0724C24.434 20.1589 24.5576 20.283 24.6433 20.4325C24.729 20.582 24.7739 20.7514 24.7731 20.9237C24.7724 21.096 24.7265 21.265 24.6397 21.4138C24.5529 21.5626 24.4283 21.686 24.2786 21.7713C24.129 21.8566 23.9595 21.901 23.7873 21.9C23.5274 21.9 23.278 22.0033 23.0943 22.187C22.9105 22.3708 22.8073 22.62 22.8073 22.88C22.8073 23.1399 22.9105 23.3892 23.0943 23.573C23.278 23.7567 23.5274 23.86 23.7873 23.86C24.5669 23.86 25.3148 23.5502 25.8661 22.9988C26.4174 22.4475 26.7273 21.6996 26.7273 20.92C26.7273 20.1403 26.4174 19.3925 25.8661 18.841C25.3148 18.2897 24.5669 17.98 23.7873 17.98ZM14.1244 15.04H15.1044C15.3644 15.04 15.6136 14.9367 15.7974 14.753C15.9812 14.5691 16.0844 14.3199 16.0844 14.06C16.0844 13.8 15.9812 13.5508 15.7974 13.367C15.6136 13.1832 15.3644 13.08 15.1044 13.08H14.1244C13.8645 13.08 13.6153 13.1832 13.4315 13.367C13.2477 13.5508 13.1444 13.8 13.1444 14.06C13.1444 14.3199 13.2477 14.5691 13.4315 14.753C13.6153 14.9367 13.8645 15.04 14.1244 15.04Z" fill="white"/>
</svg>
