<svg width="20" height="20" viewBox="0 0 20 20" fill="none" xmlns="http://www.w3.org/2000/svg">
<path d="M12.0693 7.7344L11.808 14.5313M8.19203 14.5313L7.93073 7.7344M15.4586 5.31018C15.7169 5.34945 15.9737 5.39099 16.2305 5.43555M15.4586 5.31018L14.6521 15.7947C14.6192 16.2216 14.4263 16.6203 14.1121 16.9111C13.7979 17.2019 13.3855 17.3634 12.9574 17.3633H7.0426C6.61447 17.3634 6.20207 17.2019 5.88787 16.9111C5.57368 16.6203 5.38084 16.2216 5.34792 15.7947L4.54135 5.31018M15.4586 5.31018C14.587 5.17841 13.7109 5.07841 12.832 5.01037M4.54135 5.31018C4.28307 5.3487 4.0263 5.39024 3.76953 5.43479M4.54135 5.31018C5.41297 5.17841 6.28908 5.07841 7.16797 5.01037M12.832 5.01037V4.3186C12.832 3.42745 12.1448 2.68432 11.2536 2.65638C10.4181 2.62968 9.5819 2.62968 8.74635 2.65638C7.85521 2.68432 7.16797 3.4282 7.16797 4.3186V5.01037M12.832 5.01037C10.9468 4.86467 9.05318 4.86467 7.16797 5.01037" stroke="#F63679" stroke-width="1.5" stroke-linecap="round" stroke-linejoin="round"/>
</svg>
