<svg width="15" height="15" viewBox="0 0 15 15" fill="none" xmlns="http://www.w3.org/2000/svg">
<g clip-path="url(#clip0_81_549)">
<path d="M5.625 5.9375C5.43958 5.9375 5.25832 5.88252 5.10415 5.7795C4.94998 5.67649 4.82982 5.53007 4.75886 5.35877C4.68791 5.18746 4.66934 4.99896 4.70551 4.8171C4.74169 4.63525 4.83098 4.4682 4.96209 4.33709C5.0932 4.20598 5.26025 4.11669 5.4421 4.08051C5.62396 4.04434 5.81246 4.06291 5.98377 4.13386C6.15507 4.20482 6.30149 4.32498 6.4045 4.47915C6.50752 4.63332 6.5625 4.81458 6.5625 5C6.5625 5.24864 6.46373 5.4871 6.28791 5.66291C6.1121 5.83873 5.87364 5.9375 5.625 5.9375Z" fill="#A4A4A4"/>
<path d="M2.8125 1.875H12.1875C12.4361 1.875 12.6746 1.97377 12.8504 2.14959C13.0262 2.3254 13.125 2.56386 13.125 2.8125V12.1875C13.125 12.4361 13.0262 12.6746 12.8504 12.8504C12.6746 13.0262 12.4361 13.125 12.1875 13.125H2.8125C2.56386 13.125 2.3254 13.0262 2.14959 12.8504C1.97377 12.6746 1.875 12.4361 1.875 12.1875V2.8125C1.875 2.56386 1.97377 2.3254 2.14959 2.14959C2.3254 1.97377 2.56386 1.875 2.8125 1.875ZM2.8125 12.1875H12.1875V9.375L9.84375 7.03125L7.22344 9.65156C7.04779 9.82617 6.81017 9.92418 6.5625 9.92418C6.31483 9.92418 6.07721 9.82617 5.90156 9.65156L5.15625 8.90625L2.8125 11.25V12.1875ZM2.8125 9.92344L4.49531 8.24062C4.67097 8.06601 4.90858 7.96801 5.15625 7.96801C5.40392 7.96801 5.64154 8.06601 5.81719 8.24062L6.5625 8.98594L9.18281 6.36562C9.35846 6.19101 9.59608 6.09301 9.84375 6.09301C10.0914 6.09301 10.329 6.19101 10.5047 6.36562L12.1875 8.04844V2.8125H2.8125V9.92344Z" fill="#A4A4A4"/>
</g>
<defs>
<clipPath id="clip0_81_549">
<rect width="15" height="15" fill="white" transform="matrix(-1 0 0 1 15 0)"/>
</clipPath>
</defs>
</svg>
