<svg width="25" height="25" viewBox="0 0 25 25" fill="none" xmlns="http://www.w3.org/2000/svg">
<path fill-rule="evenodd" clip-rule="evenodd" d="M12.2453 21.6949C10.4268 22.0566 8.54178 21.8709 6.82865 21.1614C5.11563 20.4518 3.65146 19.2502 2.62136 17.7085C1.59115 16.1668 1.04136 14.3542 1.04136 12.5C1.04136 10.6458 1.59115 8.83323 2.62136 7.29156C3.65146 5.74979 5.11563 4.54823 6.82865 3.83865C8.54178 3.12907 10.4268 2.94344 12.2453 3.30511C14.0639 3.66688 15.7344 4.55979 17.0455 5.87083C17.4523 6.27771 17.4523 6.93719 17.0455 7.34396C16.6387 7.75083 15.9791 7.75083 15.5723 7.34396C14.5526 6.32427 13.2533 5.62979 11.8389 5.34844C10.4245 5.06709 8.95834 5.21146 7.62594 5.76334C6.29355 6.31532 5.1548 7.2499 4.35355 8.44896C3.5523 9.64802 3.12469 11.0578 3.12469 12.5C3.12469 13.9422 3.5523 15.3519 4.35355 16.551C5.1548 17.7501 6.29355 18.6847 7.62594 19.2366C8.95834 19.7885 10.4245 19.9329 11.8389 19.6516C13.2533 19.3702 14.5526 18.6757 15.5723 17.656C15.9791 17.2492 16.6387 17.2492 17.0455 17.656C17.4523 18.0628 17.4523 18.7223 17.0455 19.1291C15.7344 20.4402 14.0639 21.3331 12.2453 21.6949Z" fill="#F63679"/>
<path fill-rule="evenodd" clip-rule="evenodd" d="M19.0548 16.3615C18.648 15.9547 18.648 15.2952 19.0548 14.8884L20.4015 13.5416H9.16634C8.95801 13.5416 8.33301 13.3333 8.33301 12.5C8.33301 11.6666 8.95801 11.4583 9.16634 11.4583H20.4015L19.0548 10.1115C18.648 9.70475 18.648 9.04517 19.0548 8.6384C19.4616 8.23163 20.1211 8.23163 20.5279 8.6384L23.6529 11.7634C24.0597 12.1702 24.0597 12.8298 23.6529 13.2365L20.5279 16.3615C20.1211 16.7683 19.4616 16.7683 19.0548 16.3615Z" fill="#F63679"/>
</svg>
