<svg width="15" height="15" viewBox="0 0 15 15" fill="none" xmlns="http://www.w3.org/2000/svg">
<path fill-rule="evenodd" clip-rule="evenodd" d="M4.6875 10.7812C4.6875 10.6569 4.73689 10.5377 4.82479 10.4498C4.9127 10.3619 5.03193 10.3125 5.15625 10.3125H13.5938C13.7181 10.3125 13.8373 10.3619 13.9252 10.4498C14.0131 10.5377 14.0625 10.6569 14.0625 10.7812C14.0625 10.9056 14.0131 11.0248 13.9252 11.1127C13.8373 11.2006 13.7181 11.25 13.5938 11.25H5.15625C5.03193 11.25 4.9127 11.2006 4.82479 11.1127C4.73689 11.0248 4.6875 10.9056 4.6875 10.7812ZM4.6875 7.03125C4.6875 6.90693 4.73689 6.7877 4.82479 6.69979C4.9127 6.61189 5.03193 6.5625 5.15625 6.5625H13.5938C13.7181 6.5625 13.8373 6.61189 13.9252 6.69979C14.0131 6.7877 14.0625 6.90693 14.0625 7.03125C14.0625 7.15557 14.0131 7.2748 13.9252 7.36271C13.8373 7.45061 13.7181 7.5 13.5938 7.5H5.15625C5.03193 7.5 4.9127 7.45061 4.82479 7.36271C4.73689 7.2748 4.6875 7.15557 4.6875 7.03125ZM4.6875 3.28125C4.6875 3.15693 4.73689 3.0377 4.82479 2.94979C4.9127 2.86189 5.03193 2.8125 5.15625 2.8125H13.5938C13.7181 2.8125 13.8373 2.86189 13.9252 2.94979C14.0131 3.0377 14.0625 3.15693 14.0625 3.28125C14.0625 3.40557 14.0131 3.5248 13.9252 3.61271C13.8373 3.70061 13.7181 3.75 13.5938 3.75H5.15625C5.03193 3.75 4.9127 3.70061 4.82479 3.61271C4.73689 3.5248 4.6875 3.40557 4.6875 3.28125ZM1.875 4.21875C2.12364 4.21875 2.3621 4.11998 2.53791 3.94416C2.71373 3.76835 2.8125 3.52989 2.8125 3.28125C2.8125 3.03261 2.71373 2.79415 2.53791 2.61834C2.3621 2.44252 2.12364 2.34375 1.875 2.34375C1.62636 2.34375 1.3879 2.44252 1.21209 2.61834C1.03627 2.79415 0.9375 3.03261 0.9375 3.28125C0.9375 3.52989 1.03627 3.76835 1.21209 3.94416C1.3879 4.11998 1.62636 4.21875 1.875 4.21875ZM1.875 7.96875C2.12364 7.96875 2.3621 7.86998 2.53791 7.69416C2.71373 7.51835 2.8125 7.27989 2.8125 7.03125C2.8125 6.78261 2.71373 6.54415 2.53791 6.36834C2.3621 6.19252 2.12364 6.09375 1.875 6.09375C1.62636 6.09375 1.3879 6.19252 1.21209 6.36834C1.03627 6.54415 0.9375 6.78261 0.9375 7.03125C0.9375 7.27989 1.03627 7.51835 1.21209 7.69416C1.3879 7.86998 1.62636 7.96875 1.875 7.96875ZM1.875 11.7188C2.12364 11.7188 2.3621 11.62 2.53791 11.4442C2.71373 11.2683 2.8125 11.0299 2.8125 10.7812C2.8125 10.5326 2.71373 10.2942 2.53791 10.1183C2.3621 9.94252 2.12364 9.84375 1.875 9.84375C1.62636 9.84375 1.3879 9.94252 1.21209 10.1183C1.03627 10.2942 0.9375 10.5326 0.9375 10.7812C0.9375 11.0299 1.03627 11.2683 1.21209 11.4442C1.3879 11.62 1.62636 11.7188 1.875 11.7188Z" fill="white"/>
</svg>
