<svg width="25" height="25" viewBox="0 0 25 25" fill="none" xmlns="http://www.w3.org/2000/svg">
<path d="M6.25 8.33337C6.25 6.67577 6.90848 5.08606 8.08058 3.91396C9.25268 2.74185 10.8424 2.08337 12.5 2.08337C14.1576 2.08337 15.7473 2.74185 16.9194 3.91396C18.0915 5.08606 18.75 6.67577 18.75 8.33337C18.75 15.625 21.875 17.7084 21.875 17.7084H3.125C3.125 17.7084 6.25 15.625 6.25 8.33337Z" stroke="white" stroke-width="2" stroke-linecap="round" stroke-linejoin="round"/>
<path d="M10.729 21.875C10.9034 22.1921 11.1597 22.4566 11.4712 22.6408C11.7827 22.825 12.1379 22.9222 12.4998 22.9222C12.8617 22.9222 13.217 22.825 13.5285 22.6408C13.84 22.4566 14.0963 22.1921 14.2707 21.875" stroke="white" stroke-width="2" stroke-linecap="round" stroke-linejoin="round"/>
</svg>
