<svg width="34" height="34" viewBox="0 0 34 34" fill="none" xmlns="http://www.w3.org/2000/svg">
<rect width="34" height="34" rx="17" fill="#333333"/>
<path d="M17 27C18.1 27 19 26.1 19 25H15C15 26.1 15.89 27 17 27ZM23 16C23 12.93 21.36 10.36 18.5 9.68V9C18.5 8.17 17.83 7.5 17 7.5C16.17 7.5 15.5 8.17 15.5 9V9.68C15.26 9.74 15.03 9.83 14.81 9.91L23 18.1V16ZM10.41 8.35L9 9.76L11.81 12.57C11.29 13.57 11 14.73 11 16V21L9.71 22.29C9.08 22.92 9.52 24 10.41 24H23.24L24.98 25.74L26.39 24.33L10.41 8.35Z" fill="white"/>
</svg>
