<svg width="21" height="21" viewBox="0 0 21 21" fill="none" xmlns="http://www.w3.org/2000/svg">
<path d="M10.4167 0C4.67708 0 0 4.67708 0 10.4167C0 16.1563 4.67708 20.8333 10.4167 20.8333C16.1563 20.8333 20.8333 16.1563 20.8333 10.4167C20.8333 4.67708 16.1563 0 10.4167 0ZM14.5833 11.1979H11.1979V14.5833C11.1979 15.0104 10.8438 15.3646 10.4167 15.3646C9.98958 15.3646 9.63542 15.0104 9.63542 14.5833V11.1979H6.25C5.82292 11.1979 5.46875 10.8438 5.46875 10.4167C5.46875 9.98958 5.82292 9.63542 6.25 9.63542H9.63542V6.25C9.63542 5.82292 9.98958 5.46875 10.4167 5.46875C10.8438 5.46875 11.1979 5.82292 11.1979 6.25V9.63542H14.5833C15.0104 9.63542 15.3646 9.98958 15.3646 10.4167C15.3646 10.8438 15.0104 11.1979 14.5833 11.1979Z" fill="#F63679"/>
</svg>
