<svg width="22" height="22" viewBox="0 0 22 22" fill="none" xmlns="http://www.w3.org/2000/svg">
<path d="M10.9997 1.83333C5.94884 1.83333 1.83301 5.94916 1.83301 11C1.83301 16.0508 5.94884 20.1667 10.9997 20.1667C16.0505 20.1667 20.1663 16.0508 20.1663 11C20.1663 5.94916 16.0505 1.83333 10.9997 1.83333ZM14.6663 11.6875H11.6872V14.6667C11.6872 15.0425 11.3755 15.3542 10.9997 15.3542C10.6238 15.3542 10.3122 15.0425 10.3122 14.6667V11.6875H7.33301C6.95717 11.6875 6.64551 11.3758 6.64551 11C6.64551 10.6242 6.95717 10.3125 7.33301 10.3125H10.3122V7.33333C10.3122 6.95749 10.6238 6.64583 10.9997 6.64583C11.3755 6.64583 11.6872 6.95749 11.6872 7.33333V10.3125H14.6663C15.0422 10.3125 15.3538 10.6242 15.3538 11C15.3538 11.3758 15.0422 11.6875 14.6663 11.6875Z" fill="#F63679"/>
</svg>
