<svg width="22" height="22" viewBox="0 0 22 22" fill="none" xmlns="http://www.w3.org/2000/svg">
<path d="M7.76598 8.844H8.84398C9.12988 8.844 9.40415 8.73043 9.60628 8.5283C9.8084 8.32608 9.92198 8.05191 9.92198 7.766C9.92198 7.48009 9.8084 7.20592 9.60628 7.0037C9.40415 6.80158 9.12988 6.688 8.84398 6.688H7.76598C7.48007 6.688 7.20589 6.80158 7.00368 7.0037C6.80155 7.20592 6.68798 7.48009 6.68798 7.766C6.68798 8.05191 6.80155 8.32608 7.00368 8.5283C7.20589 8.73043 7.48007 8.844 7.76598 8.844ZM7.76598 11C7.48007 11 7.20589 11.1137 7.00368 11.3158C6.80155 11.5179 6.68798 11.7921 6.68798 12.078C6.68798 12.3639 6.80155 12.6382 7.00368 12.8403C7.20589 13.0424 7.48007 13.156 7.76598 13.156H14.234C14.5199 13.156 14.7942 13.0423 14.9963 12.8403C15.1984 12.6383 15.312 12.3639 15.312 12.078C15.312 11.7921 15.1984 11.5179 14.9963 11.3158C14.7942 11.1137 14.5199 11 14.234 11H7.76598ZM19.624 7.70128C19.6128 7.60228 19.5911 7.50475 19.5593 7.41024V7.31326C19.5075 7.20243 19.4384 7.1005 19.3545 7.0114L12.8865 0.543401C12.7973 0.459526 12.6954 0.39041 12.5846 0.338618C12.5525 0.334035 12.5198 0.334035 12.4876 0.338618C12.3781 0.275735 12.2572 0.235493 12.1319 0.220001H5.60998C4.75225 0.220001 3.92973 0.560726 3.32317 1.16719C2.7167 1.77375 2.37598 2.59628 2.37598 3.454V18.546C2.37598 19.4036 2.7167 20.2262 3.32317 20.8328C3.92973 21.4393 4.75225 21.78 5.60998 21.78H16.39C17.2476 21.78 18.0702 21.4393 18.6768 20.8328C19.2833 20.2262 19.624 19.4036 19.624 18.546V7.70128ZM13.156 3.89602L15.948 6.688H14.234C13.9481 6.688 13.6739 6.57443 13.4718 6.3723C13.2696 6.17008 13.156 5.89591 13.156 5.61V3.89602ZM17.468 18.546C17.468 18.8319 17.3544 19.1061 17.1523 19.3083C16.9502 19.5105 16.6759 19.624 16.39 19.624H5.60998C5.32407 19.624 5.04989 19.5104 4.84768 19.3083C4.64555 19.1061 4.53198 18.8319 4.53198 18.546V3.454C4.53198 3.16809 4.64555 2.89392 4.84768 2.6917C5.04989 2.48958 5.32407 2.376 5.60998 2.376H11V5.61C11 6.46773 11.3407 7.29025 11.9473 7.89681C12.5537 8.50328 13.3763 8.844 14.234 8.844H17.468V18.546ZM14.234 15.312H7.76598C7.48007 15.312 7.20589 15.4257 7.00368 15.6278C6.80155 15.8298 6.68798 16.1041 6.68798 16.39C6.68798 16.6759 6.80155 16.9502 7.00368 17.1523C7.20589 17.3543 7.48007 17.468 7.76598 17.468H14.234C14.5199 17.468 14.7942 17.3543 14.9963 17.1523C15.1984 16.9503 15.312 16.6759 15.312 16.39C15.312 16.1041 15.1984 15.8299 14.9963 15.6278C14.7942 15.4257 14.5199 15.312 14.234 15.312Z" fill="white"/>
</svg>
