<svg width="20" height="20" viewBox="0 0 20 20" fill="none" xmlns="http://www.w3.org/2000/svg">
<g clip-path="url(#clip0_75_396)">
<path d="M7.5 10C7.5 10.663 7.76339 11.2989 8.23223 11.7678C8.70107 12.2366 9.33696 12.5 10 12.5C10.663 12.5 11.2989 12.2366 11.7678 11.7678C12.2366 11.2989 12.5 10.663 12.5 10C12.5 9.33696 12.2366 8.70107 11.7678 8.23223C11.2989 7.76339 10.663 7.5 10 7.5C9.33696 7.5 8.70107 7.76339 8.23223 8.23223C7.76339 8.70107 7.5 9.33696 7.5 10Z" stroke="white" stroke-width="1.5"/>
<path d="M12.0837 1.66669H7.91704V3.66502C7.04503 3.95227 6.24183 4.41672 5.55788 5.02919L3.82454 4.02919L1.74121 7.63752L3.47288 8.63752C3.28607 9.53625 3.28607 10.4638 3.47288 11.3625L1.74204 12.3625L3.82538 15.9709L5.55788 14.9709C6.24159 15.5832 7.0445 16.0477 7.91621 16.335V18.3334H12.0829V16.335C12.9552 16.0479 13.7587 15.5834 14.4429 14.9709L16.1762 15.9709L18.2595 12.3625L16.5279 11.3625C16.7146 10.4638 16.7146 9.53626 16.5279 8.63752L18.2587 7.63752L16.1754 4.02919L14.4429 5.02919C13.7589 4.41672 12.9557 3.95227 12.0837 3.66502V1.66669Z" stroke="white" stroke-width="1.5"/>
</g>
<defs>
<clipPath id="clip0_75_396">
<rect width="20" height="20" fill="white"/>
</clipPath>
</defs>
</svg>
