<svg width="16" height="16" viewBox="0 0 16 16" fill="none" xmlns="http://www.w3.org/2000/svg">
<g clip-path="url(#clip0_70_509)">
<path d="M11.0003 2.49995C11.0002 1.91338 11.2064 1.34546 11.5827 0.895559C11.9591 0.445654 12.4817 0.142411 13.059 0.0388849C13.6364 -0.0646415 14.2318 0.0381412 14.741 0.32925C15.2502 0.620359 15.6409 1.08126 15.8446 1.63131C16.0484 2.18135 16.0522 2.78553 15.8555 3.33812C15.6587 3.89071 15.274 4.35654 14.7685 4.65409C14.263 4.95165 13.669 5.06198 13.0903 4.9658C12.5117 4.86962 11.9853 4.57304 11.6033 4.12795L4.88527 7.24795C5.03964 7.7374 5.03964 8.2625 4.88527 8.75195L11.6033 11.8719C12.0071 11.4023 12.5709 11.0993 13.1855 11.0216C13.8 10.9439 14.4215 11.0972 14.9295 11.4516C15.4374 11.8061 15.7957 12.3365 15.9349 12.9401C16.0741 13.5436 15.9843 14.1774 15.6829 14.7185C15.3814 15.2596 14.8898 15.6696 14.3033 15.8689C13.7169 16.0682 13.0773 16.0427 12.5085 15.7974C11.9398 15.552 11.4824 15.1042 11.225 14.5408C10.9676 13.9774 10.9285 13.3385 11.1153 12.7479L4.39727 9.62795C4.0647 10.0155 3.62142 10.2919 3.12704 10.42C2.63267 10.5481 2.11093 10.5217 1.632 10.3444C1.15308 10.1671 0.739941 9.84738 0.448173 9.42824C0.156404 9.00909 0 8.51064 0 7.99995C0 7.48925 0.156404 6.99081 0.448173 6.57166C0.739941 6.15252 1.15308 5.83278 1.632 5.65547C2.11093 5.47816 2.63267 5.45177 3.12704 5.57986C3.62142 5.70795 4.0647 5.98438 4.39727 6.37195L11.1153 3.25195C11.0388 3.00862 11 2.75501 11.0003 2.49995Z" fill="#F63679"/>
</g>
<defs>
<clipPath id="clip0_70_509">
<rect width="16" height="16" fill="white"/>
</clipPath>
</defs>
</svg>
