<svg width="12" height="12" viewBox="0 0 12 12" fill="none" xmlns="http://www.w3.org/2000/svg">
<path d="M9.91039 4.14065C10.3215 4.30281 10.3215 4.88469 9.91038 5.04685L8.63626 5.54934C8.51073 5.59884 8.41136 5.69822 8.36186 5.82375L7.85935 7.09791C7.69719 7.50905 7.11531 7.50905 6.95315 7.09791L6.45066 5.82375C6.40116 5.69822 6.30178 5.59884 6.17625 5.54934L4.90209 5.04685C4.49095 4.88469 4.49095 4.30281 4.90209 4.14065L6.17625 3.63814C6.30178 3.58863 6.40116 3.48927 6.45066 3.36374L6.95315 2.08961C7.11531 1.67846 7.69719 1.67846 7.85935 2.08962L8.36186 3.36374C8.41137 3.48927 8.51073 3.58864 8.63626 3.63814L9.91039 4.14065Z" fill="#F63679" stroke="#F63679"/>
<path d="M5.36809 8.10397C5.58564 8.18975 5.58564 8.49772 5.36809 8.5835L4.41653 8.95879C4.35011 8.98499 4.29751 9.03758 4.27131 9.104L3.89603 10.0556C3.81025 10.2731 3.50228 10.2731 3.4165 10.0556L3.04121 9.104C3.01501 9.03758 2.96242 8.98499 2.896 8.95879L1.94443 8.5835C1.72689 8.49772 1.72689 8.18975 1.94443 8.10397L2.896 7.72869C2.96242 7.70249 3.01501 7.64989 3.04121 7.58347L3.4165 6.63191C3.50228 6.41436 3.81025 6.41436 3.89603 6.63191L4.27131 7.58347C4.29751 7.64989 4.35011 7.70249 4.41653 7.72869L5.36809 8.10397Z" fill="#F63679" stroke="#F63679"/>
</svg>
