<svg width="15" height="15" viewBox="0 0 15 15" fill="none" xmlns="http://www.w3.org/2000/svg">
<path d="M7.50039 5.8667C7.17733 5.8667 6.86158 5.96245 6.59302 6.14201C6.32439 6.32139 6.11502 6.57651 5.99133 6.87495C5.86777 7.17345 5.83539 7.50182 5.89839 7.8187C5.96146 8.13545 6.11702 8.42651 6.34546 8.65495C6.57389 8.88339 6.86496 9.03895 7.18171 9.10201C7.49858 9.16495 7.82696 9.13264 8.12546 9.00907C8.42389 8.88539 8.67902 8.67601 8.85839 8.40739C9.03796 8.13882 9.13371 7.82307 9.13371 7.50001C9.13371 7.06682 8.96164 6.65139 8.65533 6.34507C8.34902 6.03876 7.93358 5.8667 7.50039 5.8667ZM1.78371 5.8667C1.46071 5.8667 1.14489 5.96245 0.876268 6.14201C0.607706 6.32139 0.398331 6.57651 0.274706 6.87495C0.151081 7.17345 0.118768 7.50182 0.181768 7.8187C0.244768 8.13545 0.400331 8.42651 0.628768 8.65495C0.857206 8.88339 1.14827 9.03895 1.46508 9.10201C1.78189 9.16495 2.11033 9.13264 2.40877 9.00907C2.70721 8.88539 2.96233 8.67601 3.14177 8.40739C3.32127 8.13882 3.41708 7.82307 3.41708 7.50001C3.41708 7.06682 3.24496 6.65139 2.93864 6.34507C2.63233 6.03876 2.21689 5.8667 1.78371 5.8667ZM13.2171 5.8667C12.894 5.8667 12.5783 5.96245 12.3096 6.14201C12.0411 6.32139 11.8316 6.57651 11.708 6.87495C11.5845 7.17345 11.5521 7.50182 11.6151 7.8187C11.6781 8.13545 11.8337 8.42651 12.0621 8.65495C12.2905 8.88339 12.5816 9.03895 12.8984 9.10201C13.2153 9.16495 13.5436 9.13264 13.8421 9.00907C14.1405 8.88539 14.3956 8.67601 14.5751 8.40739C14.7546 8.13882 14.8504 7.82307 14.8504 7.50001C14.8504 7.06682 14.6783 6.65139 14.372 6.34507C14.0656 6.03876 13.6502 5.8667 13.2171 5.8667Z" fill="white"/>
</svg>
