<svg width="20" height="20" viewBox="0 0 20 20" fill="none" xmlns="http://www.w3.org/2000/svg">
<path d="M15.4108 4.80372C15.4934 4.71946 15.5919 4.65253 15.7007 4.60683C15.8095 4.56113 15.9263 4.5376 16.0442 4.5376C16.1622 4.5376 16.279 4.56113 16.3878 4.60683C16.4965 4.65253 16.5951 4.71946 16.6777 4.80372C17.0237 5.15341 17.0286 5.71848 16.6898 6.07422L9.53504 14.5321C9.45381 14.6213 9.35524 14.693 9.24534 14.7428C9.13545 14.7926 9.01656 14.8195 8.89593 14.8217C8.7753 14.824 8.65549 14.8016 8.5438 14.756C8.43212 14.7103 8.33092 14.6424 8.24639 14.5563L3.89281 10.1447C3.72491 9.97343 3.63086 9.74318 3.63086 9.50336C3.63086 9.26354 3.72491 9.03329 3.89281 8.86206C3.97539 8.7778 4.07395 8.71087 4.18272 8.66517C4.29148 8.61947 4.40827 8.59594 4.52625 8.59594C4.64423 8.59594 4.76102 8.61947 4.86978 8.66517C4.97855 8.71087 5.07711 8.7778 5.15968 8.86206L8.8526 12.6046L15.3866 4.83034L15.4108 4.80372Z" fill="#282C34"/>
</svg>
