<svg width="24" height="24" viewBox="0 0 24 24" fill="none" xmlns="http://www.w3.org/2000/svg">
<path d="M20.4375 19.2656C20.4375 17.3063 18.8719 14.5144 16.6875 13.8966M14.8125 19.2656C14.8125 16.7803 12.2944 13.6406 9.1875 13.6406C6.08063 13.6406 3.5625 16.7803 3.5625 19.2656" stroke="white" stroke-linecap="round" stroke-linejoin="round"/>
<path d="M6.375 7.54688C6.375 8.2928 6.67132 9.00817 7.19876 9.53561C7.72621 10.0631 8.44158 10.3594 9.1875 10.3594C9.93342 10.3594 10.6488 10.0631 11.1762 9.53561C11.7037 9.00817 12 8.2928 12 7.54688C12 6.80095 11.7037 6.08558 11.1762 5.55814C10.6488 5.03069 9.93342 4.73438 9.1875 4.73438C8.44158 4.73438 7.72621 5.03069 7.19876 5.55814C6.67132 6.08558 6.375 6.80095 6.375 7.54688Z" stroke="white" stroke-linecap="round" stroke-linejoin="round"/>
<path d="M14.8125 10.3594C15.1818 10.3594 15.5476 10.2866 15.8888 10.1453C16.23 10.0039 16.5401 9.79678 16.8012 9.53561C17.0624 9.27445 17.2696 8.9644 17.4109 8.62317C17.5523 8.28194 17.625 7.91622 17.625 7.54688C17.625 7.17753 17.5523 6.81181 17.4109 6.47058C17.2696 6.12935 17.0624 5.8193 16.8012 5.55814C16.5401 5.29697 16.23 5.08981 15.8888 4.94846C15.5476 4.80712 15.1818 4.73437 14.8125 4.73438" stroke="white" stroke-linecap="round" stroke-linejoin="round"/>
</svg>
