<svg width="18" height="18" viewBox="0 0 18 18" fill="none" xmlns="http://www.w3.org/2000/svg">
<path d="M15.3281 14.4492C15.3281 12.9797 14.1539 10.8858 12.5156 10.4224M11.1094 14.4492C11.1094 12.5852 9.22078 10.2305 6.89062 10.2305C4.56047 10.2305 2.67188 12.5852 2.67188 14.4492" stroke="#A4A4A4" stroke-linecap="round" stroke-linejoin="round"/>
<path d="M4.78125 5.66016C4.78125 6.2196 5.00349 6.75613 5.39907 7.15171C5.79466 7.54729 6.33118 7.76953 6.89062 7.76953C7.45007 7.76953 7.98659 7.54729 8.38218 7.15171C8.77776 6.75613 9 6.2196 9 5.66016C9 5.10072 8.77776 4.56419 8.38218 4.1686C7.98659 3.77302 7.45007 3.55078 6.89062 3.55078C6.33118 3.55078 5.79466 3.77302 5.39907 4.1686C5.00349 4.56419 4.78125 5.10072 4.78125 5.66016Z" stroke="#A4A4A4" stroke-linecap="round" stroke-linejoin="round"/>
<path d="M11.1094 7.76953C11.3864 7.76953 11.6607 7.71497 11.9166 7.60896C12.1725 7.50296 12.4051 7.34758 12.6009 7.15171C12.7968 6.95584 12.9522 6.7233 13.0582 6.46738C13.1642 6.21146 13.2188 5.93716 13.2188 5.66016C13.2188 5.38315 13.1642 5.10885 13.0582 4.85293C12.9522 4.59701 12.7968 4.36448 12.6009 4.1686C12.4051 3.97273 12.1725 3.81735 11.9166 3.71135C11.6607 3.60534 11.3864 3.55078 11.1094 3.55078" stroke="#A4A4A4" stroke-linecap="round" stroke-linejoin="round"/>
</svg>
