<svg width="22" height="22" viewBox="0 0 22 22" fill="none" xmlns="http://www.w3.org/2000/svg">
<g clip-path="url(#clip0_73_243)">
<path d="M2.0625 14.7813V4.46875C2.0625 4.10408 2.20737 3.75434 2.46523 3.49648C2.72309 3.23862 3.07283 3.09375 3.4375 3.09375H18.5625C18.9272 3.09375 19.2769 3.23862 19.5348 3.49648C19.7927 3.75434 19.9375 4.10408 19.9375 4.46875V14.7813" stroke="white" stroke-width="1.5" stroke-linecap="round" stroke-linejoin="round"/>
<path d="M13.3687 14.7812C13.1301 15.1989 12.7853 15.5459 12.3693 15.7874C11.9533 16.0288 11.481 16.156 11 16.156C10.519 16.156 10.0467 16.0288 9.63068 15.7874C9.2147 15.5459 8.86992 15.1989 8.63133 14.7812H0.6875V16.1563C0.6875 16.8856 0.977231 17.5851 1.49296 18.1008C2.00868 18.6165 2.70815 18.9063 3.4375 18.9063H18.5625C19.2918 18.9063 19.9913 18.6165 20.507 18.1008C21.0227 17.5851 21.3125 16.8856 21.3125 16.1563V14.7812H13.3687Z" stroke="white" stroke-width="1.5" stroke-linecap="round" stroke-linejoin="round"/>
</g>
<defs>
<clipPath id="clip0_73_243">
<rect width="22" height="22" fill="white"/>
</clipPath>
</defs>
</svg>
